<svg width="636" height="612" viewBox="0 0 636 612" fill="none" xmlns="http://www.w3.org/2000/svg">
<g opacity="0.06">
<path d="M-401.953 82.4223C-401.951 84.1873 -401.314 85.8955 -400.152 87.2496L-399.619 87.7682C-399.619 87.7682 36.1373 532.717 67.1751 563.636C92.3983 588.89 119.464 620.885 160.206 609.595C195.134 599.901 207.828 564.554 214.133 533.236C239.916 402.941 255.249 270.889 259.994 138.275C269.084 -98.7012 256.964 -336.476 215.894 -570.34C215.913 -570.419 215.913 -570.501 215.894 -570.58C215.505 -572.29 214.523 -573.818 213.113 -574.906C211.703 -575.994 209.952 -576.575 208.154 -576.551C206.356 -576.528 204.621 -575.901 203.241 -574.777C201.862 -573.653 200.922 -572.1 200.58 -570.38C165.161 -394.842 88.9178 -209.49 -24.6279 -67.7028C-94.4832 19.5876 -191.527 83.2999 -308.226 84.4569C-336.341 84.7613 -364.382 81.5842 -391.676 75.0018L-392.495 74.8023C-392.999 74.7629 -393.505 74.7629 -394.01 74.8023C-395.048 74.781 -396.081 74.9626 -397.047 75.3365C-398.012 75.7104 -398.891 76.2689 -399.632 76.9791C-400.372 77.6894 -400.959 78.537 -401.358 79.4719C-401.757 80.4067 -401.959 81.4099 -401.953 82.4223Z" fill="#8D1A14"/>
<path d="M566.282 398.052C567.543 396.859 568.348 395.279 568.565 393.575V392.856L576.72 253.364L583.285 139.453C588.205 53.0673 593.383 -33.1854 598.82 -119.305C601.429 -161.112 604.243 -202.96 606.363 -244.807C608.076 -278.94 613.784 -318.829 578.8 -339.533C548.831 -357.279 514.499 -342.691 487.71 -326.303C376.332 -257.915 270.556 -181.129 171.341 -96.6425C-6.35327 53.8401 -170.47 219.591 -312.854 402.768C-313.826 404.174 -314.276 405.863 -314.132 407.556C-313.988 409.248 -313.257 410.84 -312.061 412.069C-310.865 413.297 -309.276 414.087 -307.558 414.307C-305.841 414.528 -304.098 414.165 -302.62 413.28C-152.326 321.631 32.0562 251.886 209.506 236.498C318.7 227.025 428.668 252.005 506.262 331.943C524.972 351.179 541.112 372.668 554.294 395.893C554.415 396.141 554.551 396.382 554.702 396.613C554.965 397.012 555.266 397.387 555.599 397.732C556.976 399.157 558.872 399.99 560.873 400.05C562.875 400.11 564.819 399.391 566.282 398.052Z" fill="white"/>
<path d="M550.302 -347.222C529.009 -347.222 507.51 -336.964 489.328 -325.909C377.473 -257.619 271.242 -180.944 171.601 -96.5781C-6.89813 53.6883 -171.679 219.201 -314.675 402.115C-315.661 403.513 -316.126 405.199 -315.992 406.891C-315.858 408.583 -315.133 410.18 -313.938 411.414C-313.238 412.15 -312.389 412.736 -311.444 413.135C-310.5 413.533 -309.48 413.736 -308.451 413.729C-307.004 413.743 -305.584 413.355 -304.356 412.611C-153.457 321.095 31.7173 251.449 209.93 236.083C224.426 234.846 238.922 234.168 253.377 234.168C348.216 234.168 440.353 262.106 507.961 331.392C526.751 350.6 542.961 372.058 556.199 395.25C556.32 395.498 556.457 395.738 556.609 395.968C556.873 396.367 557.174 396.741 557.509 397.086C558.194 397.792 559.015 398.36 559.926 398.757C560.836 399.153 561.818 399.371 562.814 399.397C563.811 399.423 564.803 399.257 565.734 398.908C566.665 398.559 567.516 398.035 568.238 397.365C569.481 396.179 570.275 394.617 570.49 392.935V392.217C570.49 392.217 606.362 -202.742 608.492 -244.53C610.212 -278.614 615.535 -318.446 580.441 -339.12C571.352 -344.459 560.915 -347.224 550.302 -347.102M550.302 -372.605C565.686 -372.729 580.806 -368.71 593.996 -360.991C639.9 -333.971 637.115 -286.077 635.068 -251.115C635.068 -248.481 634.781 -245.847 634.658 -243.133C632.57 -201.745 598.213 369.427 596.739 393.733V395.29V396.008C595.797 403.614 592.179 410.666 586.502 415.964C580.153 421.798 571.721 424.991 562.997 424.864C558.405 424.871 553.859 423.97 549.636 422.213C545.413 420.457 541.599 417.883 538.427 414.647C537.059 413.232 535.813 411.71 534.701 410.097L534.25 409.458L533.882 408.78C533.554 408.301 533.267 407.742 532.981 407.223C520.875 386.11 506.1 366.561 489.001 349.033C416.93 275.236 321.108 259.751 253.377 259.751C239.946 259.751 226.105 260.349 212.428 261.547C128.809 268.771 41.0538 288.407 -48.421 319.897C-133.055 349.732 -214.25 388.123 -290.678 434.443C-297.207 438.424 -304.934 440.112 -312.581 439.227C-320.228 438.341 -327.336 434.937 -332.726 429.576C-338.116 424.216 -341.465 417.221 -342.219 409.752C-342.972 402.282 -341.085 394.786 -336.87 388.505C-336.357 387.715 -335.796 386.955 -335.191 386.23C-199.033 212.137 -34.2933 43.2315 154.484 -115.855C255.156 -201.078 362.466 -278.553 475.447 -347.581C493.26 -358.397 520.491 -372.725 550.302 -372.725V-372.605Z" fill="white"/>
<path d="M-312.741 402.624C-170.353 219.524 -6.19733 53.8836 171.329 -96.7752C270.531 -181.252 376.323 -257.994 487.737 -326.299C505.837 -337.366 527.401 -347.633 548.883 -347.633C559.461 -347.763 569.866 -344.995 578.926 -339.643C613.779 -318.828 608.072 -278.916 606.36 -244.837C604.24 -203.007 568.572 392.556 568.572 392.556V393.275C568.337 394.973 567.534 396.547 566.289 397.75C564.869 399.042 563.009 399.768 561.071 399.788C560.049 399.78 559.038 399.571 558.1 399.173C557.162 398.775 556.315 398.196 555.609 397.47C555.275 397.116 554.962 396.742 554.672 396.352L554.305 395.633C541.113 372.425 524.978 350.947 506.285 331.709C438.943 262.353 347.306 234.386 252.857 234.386C238.508 234.386 224.037 235.026 209.606 236.304C32.2021 251.606 -152.132 321.362 -302.509 413.251C-303.739 413.98 -305.148 414.367 -306.586 414.37C-307.617 414.38 -308.639 414.179 -309.586 413.78C-310.534 413.381 -311.386 412.793 -312.089 412.053C-313.297 410.799 -314.022 409.173 -314.141 407.453C-314.26 405.733 -313.765 404.026 -312.741 402.624ZM-68.7289 232.269C-68.3906 232.311 -68.0482 232.311 -67.7098 232.269L-65.9162 231.63C21.1743 201.129 111.793 181.348 203.858 172.741C256.822 167.651 310.276 170.915 362.185 182.409C392.057 189.135 421.051 199.174 448.604 212.333C466.833 221.09 484.298 231.299 500.823 242.856C501.71 243.766 502.804 244.456 504.015 244.873C505.226 245.29 506.521 245.42 507.793 245.253C508.509 245.085 509.183 244.779 509.778 244.354C510.373 243.929 510.876 243.393 511.258 242.776C512.178 240.661 512.556 238.356 512.359 236.064L512.603 231.79C512.848 227.794 541.546 -254.066 541.749 -257.262C541.994 -261.857 542.361 -267.809 542.483 -273.523C542.472 -275.02 541.858 -276.453 540.773 -277.508C539.689 -278.564 538.223 -279.156 536.695 -279.156C535.943 -279.146 535.199 -279.011 534.494 -278.756L533.434 -278.197C530.254 -276.639 526.545 -274.601 522.224 -271.964C413.779 -205.306 310.772 -130.505 214.131 -48.2336C113.637 36.6555 18.0343 126.953 -72.2346 222.241C-72.6352 222.594 -73.0162 222.967 -73.376 223.36C-74.1485 224.311 -74.5528 225.5 -74.5174 226.716C-74.4854 228.199 -73.8615 229.612 -72.7794 230.65C-71.6973 231.688 -70.2432 232.269 -68.7289 232.269Z" fill="#4A4A49"/>
</g>
</svg>
