<svg width="166" height="54" viewBox="0 0 166 54" fill="none" xmlns="http://www.w3.org/2000/svg">
<g clip-path="url(#clip0_386_3871)">
<path d="M58.7785 37.9901C58.9558 37.9955 59.1308 37.9492 59.2809 37.8569C59.431 37.7647 59.5496 37.6308 59.6213 37.4723C59.693 37.3139 59.7147 37.1382 59.6835 36.9677C59.6524 36.7972 59.5698 36.6396 59.4463 36.5152C59.3229 36.3908 59.1643 36.3052 58.9907 36.2694C58.8171 36.2335 58.6366 36.2491 58.4721 36.3141C58.3077 36.3791 58.1668 36.4905 58.0676 36.6341C57.9685 36.7777 57.9154 36.9469 57.9153 37.1201C57.9124 37.2329 57.9325 37.3451 57.9744 37.4502C58.0164 37.5552 58.0794 37.6511 58.1598 37.7321C58.2402 37.8131 58.3363 37.8777 58.4425 37.922C58.5488 37.9663 58.663 37.9894 58.7785 37.9901Z" fill="#4A4A49"/>
<path d="M60.954 37.9901C61.1313 37.9952 61.306 37.9485 61.4559 37.856C61.6058 37.7635 61.7241 37.6295 61.7955 37.471C61.867 37.3126 61.8883 37.1369 61.857 36.9665C61.8256 36.7961 61.7428 36.6387 61.6193 36.5145C61.4958 36.3903 61.3371 36.3048 61.1636 36.2692C60.9901 36.2335 60.8096 36.2492 60.6453 36.3142C60.481 36.3792 60.3402 36.4907 60.2411 36.6343C60.142 36.7778 60.089 36.947 60.089 37.1201C60.0872 37.2327 60.1083 37.3445 60.1508 37.4492C60.1933 37.5538 60.2566 37.6493 60.3369 37.7301C60.4172 37.8109 60.5131 37.8754 60.619 37.92C60.7249 37.9647 60.8387 37.9885 60.954 37.9901Z" fill="#4A4A49"/>
<path d="M72.8249 46.0232C72.6482 46.0206 72.4746 46.0695 72.3264 46.1636C72.1782 46.2576 72.0619 46.3926 71.9925 46.5513C71.9231 46.7101 71.9036 46.8854 71.9365 47.055C71.9694 47.2246 72.0532 47.3808 72.1773 47.5037C72.3013 47.6267 72.4601 47.7108 72.6333 47.7454C72.8065 47.78 72.9863 47.7635 73.1498 47.6981C73.3134 47.6326 73.4534 47.5211 73.5519 47.3778C73.6504 47.2345 73.703 47.0658 73.703 46.8932C73.7047 46.7795 73.6833 46.6667 73.6399 46.5612C73.5965 46.4557 73.5321 46.3597 73.4504 46.2787C73.3687 46.1978 73.2714 46.1335 73.164 46.0896C73.0566 46.0457 72.9413 46.0232 72.8249 46.0232Z" fill="#4A4A49"/>
<path d="M74.9952 46.0232C74.8179 46.0181 74.6431 46.0648 74.4932 46.1573C74.3433 46.2498 74.2251 46.3838 74.1536 46.5423C74.0822 46.7007 74.0608 46.8764 74.0922 47.0468C74.1236 47.2172 74.2063 47.3746 74.3299 47.4988C74.4534 47.623 74.612 47.7085 74.7855 47.7441C74.9591 47.7798 75.1395 47.7641 75.3039 47.6991C75.4682 47.6341 75.6089 47.5226 75.708 47.3791C75.8071 47.2355 75.8601 47.0663 75.8602 46.8932C75.8619 46.7806 75.8409 46.6688 75.7984 46.5641C75.7558 46.4595 75.6926 46.364 75.6122 46.2832C75.5319 46.2024 75.4361 46.1379 75.3302 46.0933C75.2243 46.0486 75.1105 46.0248 74.9952 46.0232Z" fill="#4A4A49"/>
<path d="M86.0105 46.0105C85.8317 46.0105 85.6569 46.0622 85.5082 46.1592C85.3596 46.2562 85.2437 46.3941 85.1753 46.5554C85.1068 46.7167 85.0889 46.8941 85.1238 47.0654C85.1587 47.2366 85.2448 47.3939 85.3712 47.5173C85.4977 47.6408 85.6587 47.7248 85.8341 47.7589C86.0095 47.793 86.1912 47.7755 86.3564 47.7087C86.5216 47.6419 86.6628 47.5287 86.7622 47.3836C86.8615 47.2384 86.9145 47.0677 86.9145 46.8932C86.914 46.6592 86.8186 46.435 86.6492 46.2695C86.4798 46.1041 86.2501 46.011 86.0105 46.0105Z" fill="#4A4A49"/>
<path d="M87.8445 44.9737V38.9689H86.1163V43.6506H75.9065V38.9689H74.1764V43.6506H62.7748V39.2444C61.8938 38.9483 60.9685 38.797 60.0368 38.7967C57.6235 38.7967 56.5654 40.3319 56.5654 42.0066C56.5654 43.8192 57.5214 44.9737 60.0757 44.9737H87.8445ZM61.0986 43.6433H60.2595C58.884 43.6433 58.2937 43.018 58.2937 41.8526C58.2937 40.8557 58.871 40.1271 59.853 40.1271C60.2798 40.1212 60.7035 40.1995 61.0986 40.3573V43.6433Z" fill="#4A4A49"/>
<path d="M118.74 43.6433H108.595C108.091 43.6444 107.593 43.5308 107.141 43.3117C108.018 42.5867 108.478 41.713 108.478 40.8557C108.478 39.7428 107.665 38.7586 105.712 38.7586C104.413 38.7586 102.961 39.4492 101.927 40.1778L101.782 41.3795C102.922 41.6876 103.696 42.4797 104.533 43.2482C103.543 43.5346 102.514 43.6679 101.482 43.6433H92.0737V38.9689H90.3454V45.1223C90.3454 46.5035 89.8201 46.9131 88.9421 46.9131C88.5827 46.915 88.2253 46.863 87.8821 46.759L87.7373 48.1021C88.0976 48.188 88.4672 48.2312 88.8381 48.2308C91.5112 48.2308 92.0737 46.6702 92.0737 45.0335V44.981H101.378C103.134 44.981 104.589 44.6747 105.701 44.1889C106.499 44.7167 107.445 44.9908 108.409 44.9737H120.475V35.9565H118.747L118.74 43.6433ZM105.95 42.5305C105.151 41.8798 104.431 41.124 103.536 40.7669C104.008 40.4588 104.821 39.9984 105.528 39.9984C106.366 39.9984 106.772 40.4715 106.772 41.0732C106.763 41.597 106.501 42.11 105.95 42.5305Z" fill="#4A4A49"/>
<path d="M124.425 35.9565H122.695V44.9737H124.425V35.9565Z" fill="#4A4A49"/>
<path d="M131.761 42.8005C131.761 42.3655 132.114 42.0447 132.795 42.0447C133.148 42.0474 133.499 42.082 133.844 42.148L134.054 40.8176C133.664 40.7588 133.27 40.7285 132.875 40.727C130.818 40.727 130.031 41.7892 130.031 42.864C130.018 43.0362 130.054 43.2086 130.135 43.3622C130.216 43.5157 130.339 43.6444 130.49 43.734C130.091 43.6777 129.688 43.6522 129.285 43.6578V44.9737H134.422V43.6578H133.254C132.155 43.6578 131.761 43.299 131.761 42.8005Z" fill="#4A4A49"/>
<path d="M150.869 37.8814C151.048 37.8814 151.222 37.8296 151.371 37.7326C151.52 37.6356 151.636 37.4978 151.704 37.3365C151.773 37.1752 151.79 36.9977 151.756 36.8265C151.721 36.6553 151.635 36.498 151.508 36.3745C151.382 36.2511 151.221 36.167 151.045 36.133C150.87 36.0989 150.688 36.1164 150.523 36.1832C150.358 36.25 150.217 36.3631 150.117 36.5083C150.018 36.6535 149.965 36.8241 149.965 36.9987C149.964 37.1149 149.987 37.2301 150.032 37.3376C150.077 37.4452 150.143 37.5428 150.227 37.625C150.312 37.7072 150.412 37.7721 150.522 37.8162C150.632 37.8602 150.75 37.8823 150.869 37.8814Z" fill="#4A4A49"/>
<path d="M150.501 38.8855C149.943 38.8901 149.385 38.9288 148.831 39.0015V40.3192C149.329 40.2506 149.832 40.216 150.336 40.2159C152.224 40.2159 152.905 41.0478 152.905 42.6718C152.904 42.9967 152.882 43.3212 152.838 43.6433H138.023V35.9565H136.295V44.9737H154.392C154.532 44.1955 154.606 43.4075 154.615 42.6175C154.615 40.1525 153.449 38.8855 150.501 38.8855Z" fill="#4A4A49"/>
<path d="M158.114 47.0726C158.114 46.8551 158.322 46.7101 158.69 46.7101C158.901 46.7151 159.111 46.7363 159.319 46.7735L159.477 45.8528C159.221 45.8077 158.962 45.7864 158.703 45.7893C157.433 45.7893 156.882 46.4165 156.882 47.107C156.879 47.1851 156.892 47.263 156.922 47.3357C156.951 47.4084 156.996 47.4744 157.052 47.5293C156.841 47.4909 156.625 47.4739 156.41 47.4786V48.412H159.711V47.4695H158.938C158.344 47.4695 158.114 47.3282 158.114 47.0726Z" fill="#4A4A49"/>
<path d="M159.37 42.6845L157.458 35.8659L155.741 36.0979L157.614 42.6845H159.37Z" fill="#4A4A49"/>
<path d="M160.327 43.6433H156.28V44.9737H162.057V35.9565H160.327V43.6433Z" fill="#4A4A49"/>
<path d="M166.002 35.9565H164.271V44.9737H166.002V35.9565Z" fill="#4A4A49"/>
<path d="M59.7472 22.6183L56.5654 31.621H58.3531L58.9954 29.7813H62.4927L63.1145 31.621H65.0804L61.83 22.6183H59.7472ZM59.4205 28.4074L60.3616 25.7267C60.499 25.2863 60.6085 24.8857 60.7162 24.487H60.731C60.8257 24.8857 60.9482 25.2863 61.1023 25.7267L62.0434 28.4074H59.4205Z" fill="#4A4A49"/>
<path d="M69.7864 27.6063C71.071 27.3942 72.0548 26.4336 72.0548 25.0996C72.0548 23.2599 70.7424 22.5621 68.7134 22.5621C67.6479 22.5621 66.7866 22.5748 66.0645 22.6146V31.6174H67.8391V27.8999H67.9895L70.4751 31.621H72.6748L70.5308 28.5941C70.3062 28.2751 70.0463 27.9398 69.7864 27.6063ZM67.8335 26.6203V24.0193C68.0643 23.9901 68.2969 23.9768 68.5297 23.9795C69.6434 23.9795 70.2003 24.4054 70.2003 25.2736C70.2003 26.1128 69.5451 26.6475 68.4795 26.6475C68.2029 26.6438 67.956 26.633 67.8335 26.6203Z" fill="#4A4A49"/>
<path d="M75.9475 22.6183L72.7676 31.621H74.5552L75.1975 29.7813H78.6948L79.3223 31.621H81.29L78.0395 22.6183H75.9475ZM75.6189 28.4074L76.5619 25.7267C76.6993 25.2863 76.8069 24.8857 76.9165 24.487H76.9313C77.026 24.8857 77.1485 25.2863 77.3026 25.7267L78.2456 28.4074H75.6189Z" fill="#4A4A49"/>
<path d="M87.0109 26.8342V26.807C87.4268 26.6517 87.7835 26.3751 88.0327 26.0148C88.2818 25.6544 88.4111 25.2279 88.4031 24.7933C88.4031 23.3523 87.2893 22.5657 85.3161 22.5657C84.2023 22.5657 83.0346 22.5929 82.2568 22.6328V31.621C83.4189 31.621 84.3341 31.6482 84.9485 31.6482C87.6532 31.6482 88.6612 30.2344 88.6612 28.8479C88.672 28.3764 88.5125 27.9163 88.2108 27.5482C87.9091 27.18 87.4843 26.9272 87.0109 26.8342ZM84.0408 23.9795C84.3266 23.9668 84.6552 23.9523 85.0376 23.9523C86.1161 23.9523 86.5227 24.4054 86.5227 25.0724C86.5227 25.8735 85.9751 26.3538 84.761 26.3538C84.4733 26.3538 84.2542 26.3538 84.0371 26.3393L84.0408 23.9795ZM85.019 30.2471C84.6923 30.2471 84.2542 30.2199 84.0371 30.2072V27.6697C84.2227 27.6552 84.6923 27.6552 84.8149 27.6552C86.0307 27.6552 86.7677 28.0558 86.7677 28.9095C86.764 29.687 86.1774 30.2471 85.019 30.2471Z" fill="#4A4A49"/>
<path d="M92.0792 22.6183H90.3027V31.621H92.0792V22.6183Z" fill="#4A4A49"/>
<path d="M96.2296 22.6183L93.0479 31.621H94.8374L95.4796 29.7813H98.9751L99.6044 31.621H101.57L98.3198 22.6183H96.2296ZM95.9029 28.4074L96.8459 25.7267C96.9814 25.2863 97.0909 24.8857 97.2004 24.487H97.2134C97.31 24.8857 97.4325 25.2863 97.5847 25.7267L98.5277 28.4074H95.9029Z" fill="#4A4A49"/>
<path d="M108.468 24.8857C108.468 26.14 108.509 28.353 108.565 29.2611C108.307 28.6434 108.011 28.0417 107.677 27.4595L104.893 22.6183H102.541V31.621H104.249V29.1814C104.249 27.8727 104.208 25.6868 104.152 24.9002C104.387 25.5032 104.662 26.091 104.973 26.6602L107.826 31.621H110.176V22.6183H108.468V24.8857Z" fill="#4A4A49"/>
<path d="M117.661 22.6183L114.479 31.621H116.269L116.909 29.7813H120.407L121.032 31.621H122.998L119.751 22.6183H117.661ZM117.335 28.4074L118.276 25.7267C118.413 25.2863 118.523 24.8857 118.632 24.487H118.645C118.742 24.8857 118.864 25.2863 119.016 25.7267L119.958 28.4074H117.335Z" fill="#4A4A49"/>
<path d="M125.747 22.6183H123.973V31.621H128.74V30.1003H125.747V22.6183Z" fill="#4A4A49"/>
<path d="M132.604 27.2329H129.244V28.6068H132.604V27.2329Z" fill="#4A4A49"/>
<path d="M134.162 31.621H139.174V30.1275H135.937V27.7005H139.011V26.2868H135.937V24.0719H139.174V22.6183H134.162V31.621Z" fill="#4A4A49"/>
<path d="M147.834 22.6183H145.649L142.671 26.7V22.6183H140.896V31.621H142.671V27.3L145.636 31.621H147.971L144.448 26.9665L147.834 22.6183Z" fill="#4A4A49"/>
<path d="M154.732 26.2197H150.826V22.6183H149.05V31.621H150.826V27.7132H154.732V31.621H156.522V22.6183H154.732V26.2197Z" fill="#4A4A49"/>
<path d="M162.749 22.6183H160.661L157.478 31.621H159.273L159.915 29.7813H163.41L164.04 31.621H166.005L162.749 22.6183ZM160.336 28.4074L161.279 25.7267C161.415 25.2863 161.524 24.8857 161.634 24.487H161.647C161.743 24.8857 161.866 25.2863 162.018 25.7267L162.961 28.4074H160.336Z" fill="#4A4A49"/>
<path d="M47.0311 29.9444C47.031 30.0246 47.0021 30.1022 46.9494 30.1637L46.9253 30.1873C46.9253 30.1873 27.1703 50.4022 25.7632 51.8069C24.6197 52.9542 23.3927 54.4078 21.5456 53.8949C19.9622 53.4544 19.3867 51.8485 19.1009 50.4257C17.932 44.5062 17.2369 38.5068 17.0218 32.4819C16.6097 21.7156 17.1591 10.9131 19.021 0.288188C19.0202 0.284612 19.0202 0.280888 19.021 0.277313C19.0387 0.199593 19.0832 0.130179 19.1471 0.0807634C19.211 0.0313474 19.2904 0.00494828 19.3719 0.0060124C19.4535 0.00707652 19.5321 0.0355388 19.5947 0.0866055C19.6572 0.137672 19.6998 0.208223 19.7153 0.286375C21.321 8.2614 24.7775 16.6823 29.9251 23.124C33.092 27.0897 37.4915 29.9843 42.782 30.0369C44.0566 30.0507 45.3278 29.9063 46.5652 29.6073L46.6023 29.5982C46.6252 29.5964 46.6481 29.5964 46.671 29.5982C46.7181 29.5973 46.7649 29.6055 46.8087 29.6225C46.8525 29.6395 46.8923 29.6649 46.9259 29.6971C46.9594 29.7294 46.986 29.7679 47.0041 29.8104C47.0222 29.8528 47.0314 29.8984 47.0311 29.9444Z" fill="#8D1A14"/>
<path d="M3.07372 44.2469C3.01633 44.1928 2.97964 44.1212 2.96977 44.0439V44.0113L2.5985 37.6856L2.29963 32.52C2.07564 28.6026 1.83988 24.6912 1.59237 20.7858C1.47357 18.8899 1.34548 16.9922 1.24895 15.0946C1.17099 13.5467 0.911102 11.7378 2.50383 10.7989C3.86823 9.99416 5.43125 10.6557 6.65086 11.3989C11.7215 14.5001 16.5371 17.9822 21.0541 21.8135C29.1439 28.6376 36.6157 36.1541 43.0979 44.4608C43.1422 44.5245 43.1627 44.6012 43.1561 44.6779C43.1495 44.7546 43.1163 44.8269 43.0618 44.8826C43.0074 44.9383 42.935 44.9741 42.8568 44.9841C42.7786 44.9941 42.6993 44.9776 42.632 44.9375C35.7896 40.7814 27.3953 37.6186 19.3166 36.9208C14.3453 36.4912 9.33882 37.624 5.80623 41.249C4.95441 42.1213 4.21961 43.0958 3.61948 44.149C3.61401 44.1603 3.60781 44.1712 3.60092 44.1817C3.58893 44.1998 3.57526 44.2168 3.56008 44.2324C3.49739 44.297 3.41107 44.3348 3.31996 44.3375C3.22885 44.3402 3.14033 44.3077 3.07372 44.2469Z" fill="white"/>
<path d="M43.1037 44.468C36.6195 36.1613 29.1441 28.6467 21.0598 21.8117C16.5423 17.9792 11.7247 14.4977 6.65102 11.3989C5.82681 10.8968 4.84481 10.431 3.86653 10.431C3.38482 10.4251 2.91101 10.5507 2.49842 10.7935C0.91126 11.7378 1.17115 13.5485 1.24911 15.0946C1.34564 16.9922 2.96992 44.0113 2.96992 44.0113V44.0439C2.98064 44.1209 3.0172 44.1923 3.07388 44.2469C3.13854 44.3055 3.22326 44.3385 3.31149 44.3393C3.35805 44.339 3.40407 44.3295 3.44681 44.3115C3.48954 44.2934 3.52811 44.2671 3.56024 44.2342C3.57547 44.2181 3.58972 44.2012 3.60293 44.1835L3.61964 44.1508C4.22039 43.098 4.95514 42.1236 5.80639 41.2508C8.87304 38.1043 13.0461 36.8356 17.3472 36.8356C18.0006 36.8356 18.6596 36.8646 19.3167 36.9226C27.3954 37.6168 35.7897 40.7814 42.6377 44.9502C42.6937 44.9832 42.7579 45.0008 42.8234 45.0009C42.8703 45.0014 42.9169 44.9922 42.96 44.9741C43.0032 44.956 43.042 44.9293 43.074 44.8958C43.129 44.8389 43.162 44.7651 43.1674 44.6871C43.1728 44.6091 43.1503 44.5316 43.1037 44.468ZM31.9917 36.7395C31.9763 36.7414 31.9607 36.7414 31.9453 36.7395L31.8636 36.7105C27.8976 35.3268 23.771 34.4294 19.5785 34.0389C17.1666 33.808 14.7324 33.9561 12.3685 34.4775C11.0082 34.7826 9.68783 35.2381 8.43309 35.8351C7.60297 36.2323 6.80764 36.6955 6.05514 37.2198C6.01473 37.2611 5.96492 37.2924 5.90976 37.3113C5.8546 37.3302 5.79565 37.3361 5.73771 37.3286C5.70512 37.3209 5.6744 37.307 5.64732 37.2878C5.62024 37.2685 5.59734 37.2442 5.57992 37.2162C5.53803 37.1202 5.52082 37.0157 5.5298 36.9117L5.51866 36.7178C5.50752 36.5365 4.20067 14.6759 4.19139 14.5309C4.18025 14.3224 4.16354 14.0524 4.15797 13.7932C4.15846 13.7252 4.18645 13.6602 4.23583 13.6124C4.28521 13.5645 4.35198 13.5376 4.42157 13.5376C4.4558 13.538 4.4897 13.5442 4.52181 13.5557L4.57008 13.5811C4.71487 13.6518 4.8838 13.7442 5.08057 13.8639C10.019 16.888 14.7098 20.2815 19.1107 24.0139C23.687 27.8651 28.0406 31.9616 32.1514 36.2846C32.1696 36.3006 32.1869 36.3175 32.2033 36.3353C32.2385 36.3785 32.2569 36.4324 32.2553 36.4876C32.2538 36.5549 32.2254 36.619 32.1762 36.6661C32.1269 36.7132 32.0607 36.7395 31.9917 36.7395Z" fill="#4A4A49"/>
</g>
<defs>
<clipPath id="clip0_386_3871">
<rect width="166" height="54" fill="white"/>
</clipPath>
</defs>
</svg>
