<svg width="333" height="396" viewBox="0 0 333 396" fill="none" xmlns="http://www.w3.org/2000/svg">
<g opacity="0.04">
<path d="M371.609 245.971C371.974 245.571 372.184 245.052 372.201 244.504L372.188 244.277C372.188 244.277 365.681 53.2212 365.057 39.7882C364.577 28.8428 365.076 15.9886 353.509 10.1047C343.59 5.06394 333.392 10.4397 325.475 16.2262C292.641 40.3943 261.809 67.1254 233.26 96.1774C182.103 147.966 135.586 204.329 96.435 265.805C96.4143 265.819 96.3974 265.837 96.3854 265.859C96.119 266.327 96.0249 266.877 96.1189 267.415C96.2128 267.954 96.4891 268.448 96.9013 268.815C97.3134 269.183 97.8361 269.4 98.3814 269.431C98.9268 269.463 99.4613 269.306 99.8951 268.987C144.285 236.568 199.955 210.385 255.047 201.797C288.953 196.5 324.132 202.176 350.803 226.091C357.233 231.848 362.926 238.377 367.744 245.522L367.888 245.737C367.994 245.85 368.109 245.955 368.231 246.051C368.462 246.271 368.733 246.444 369.03 246.559C369.326 246.675 369.641 246.73 369.955 246.723C370.27 246.715 370.579 246.645 370.863 246.516C371.147 246.387 371.4 246.201 371.609 245.971Z" fill="#8D1A14"/>
<path d="M217.711 -26.1154C217.178 -26.1065 216.668 -25.9156 216.266 -25.5746L216.117 -25.4117L185.37 4.49148L160.283 28.9306C141.271 47.4763 122.228 65.9384 103.154 84.3168C93.9015 93.2449 84.5943 102.14 75.4441 111.178C67.9844 118.554 58.4273 126.406 62.0613 138.343C65.1721 148.571 75.9703 152.38 85.4327 154.219C124.827 161.805 164.692 166.33 204.667 167.75C276.09 170.483 347.6 166.945 417.799 154.958C418.31 154.84 418.762 154.551 419.08 154.138C419.398 153.725 419.563 153.213 419.546 152.687C419.53 152.161 419.334 151.653 418.99 151.247C418.647 150.841 418.177 150.562 417.659 150.457C364.632 140.075 308.422 117.671 265.044 84.3917C238.351 63.9141 218.62 35.4729 217.608 1.29224C217.355 -6.94079 218.152 -15.1516 219.979 -23.1429C220.003 -23.224 220.022 -23.3066 220.035 -23.3903C220.058 -23.5353 220.068 -23.6824 220.064 -23.8297C220.047 -24.4376 219.79 -25.0192 219.35 -25.4474C218.909 -25.8756 218.32 -26.1157 217.711 -26.1154Z" fill="white"/>
<path d="M66.9226 145.988C71.7453 150.4 78.7395 152.531 85.1479 153.794C124.63 161.502 164.575 166.145 204.622 167.682C276.182 170.63 347.793 167.284 418.076 155.483C418.589 155.37 419.044 155.085 419.364 154.674C419.684 154.263 419.851 153.751 419.836 153.224C419.83 152.912 419.759 152.604 419.628 152.318C419.496 152.032 419.307 151.774 419.073 151.563C418.748 151.26 418.346 151.053 417.914 150.967C364.777 140.431 308.408 117.84 264.862 84.3977C261.323 81.6746 257.899 78.8249 254.625 75.8301C233.145 56.1811 218.066 30.7645 217.109 1.06514C216.833 -7.17828 217.607 -15.3965 219.414 -23.392C219.438 -23.4731 219.457 -23.5557 219.47 -23.6395C219.493 -23.7846 219.502 -23.9318 219.497 -24.0793C219.489 -24.3811 219.42 -24.6798 219.296 -24.9582C219.172 -25.2367 218.995 -25.4893 218.775 -25.7017C218.554 -25.9141 218.295 -26.082 218.012 -26.1959C217.729 -26.3098 217.428 -26.3674 217.125 -26.3653C216.598 -26.3541 216.095 -26.1649 215.697 -25.8286L215.549 -25.6659C215.549 -25.6659 84.1593 101.651 75.0195 110.674C67.5683 118.038 58.1103 125.956 61.7752 137.909C62.7275 141.002 64.5187 143.79 66.9474 145.961M61.6635 151.737C58.1537 148.578 55.5619 144.535 54.1739 140.055C49.3753 124.424 59.9287 114.154 67.636 106.66C68.1818 106.063 68.7924 105.526 69.3825 104.937C78.4304 95.9957 204.548 -26.2481 209.918 -31.4476L210.24 -31.8002L210.389 -31.9629C212.178 -33.4902 214.459 -34.3379 216.842 -34.3616C219.489 -34.3675 222.06 -33.3437 224.01 -31.5075C225.051 -30.5578 225.894 -29.4118 226.487 -28.139C227.079 -26.8662 227.41 -25.4931 227.458 -24.103C227.474 -23.4992 227.441 -22.8964 227.359 -22.3005L227.329 -22.0625L227.272 -21.8325C227.247 -21.6562 227.196 -21.4702 227.153 -21.2933C225.521 -14.0035 224.817 -6.51461 225.058 0.997857C226.092 32.6434 244.586 56.0033 259.926 70.0358C262.968 72.8186 266.226 75.5506 269.572 78.1131C290.007 93.8013 313.951 107.535 340.74 118.941C366.089 129.718 392.433 137.845 419.339 143.189C421.642 143.64 423.742 144.859 425.291 146.644C426.839 148.429 427.744 150.672 427.854 153.003C427.964 155.334 427.273 157.612 425.897 159.46C424.52 161.307 422.539 162.614 420.283 163.163C420.003 163.236 419.719 163.292 419.432 163.331C352.525 174.551 280.22 178.674 204.504 175.594C164.047 174.038 123.692 169.352 83.8019 161.579C77.5266 160.338 68.3905 157.941 61.6387 151.765L61.6635 151.737Z" fill="white"/>
<path d="M417.744 154.967C347.56 166.936 276.063 170.441 204.642 167.783C164.673 166.363 124.813 161.825 85.4273 154.212C79.0353 152.969 72.0241 150.827 67.1586 146.376C64.7361 144.214 62.9529 141.431 62.0098 138.342C58.4286 126.407 67.9902 118.55 75.4385 111.186C84.585 102.151 216.053 -25.3452 216.053 -25.3452L216.202 -25.5081C216.607 -25.8439 217.115 -26.0339 217.647 -26.0486C218.236 -26.047 218.808 -25.8261 219.25 -25.429C219.48 -25.2155 219.666 -24.9588 219.796 -24.6742C219.926 -24.3896 219.998 -24.083 220.007 -23.7725C220.01 -23.6229 220.003 -23.4734 219.988 -23.3249L219.922 -23.086C218.102 -15.0968 217.306 -6.88949 217.554 1.34043C218.437 31.0007 233.397 56.3202 254.788 75.8885C258.038 78.8613 261.448 81.7147 264.981 84.4148C308.331 117.704 364.532 140.096 417.628 150.44C418.058 150.53 418.457 150.734 418.783 151.031C419.019 151.243 419.208 151.5 419.34 151.787C419.472 152.073 419.543 152.383 419.549 152.696C419.563 153.23 419.391 153.749 419.061 154.163C418.732 154.577 418.266 154.862 417.744 154.967ZM327.184 142.995C327.116 142.915 327.038 142.844 326.953 142.784L326.414 142.557C300.371 131.421 275.749 117.127 253.114 100.002C240.064 90.1814 228.634 78.3675 219.258 65.0097C213.886 57.2973 209.4 49.0167 205.885 40.3278C203.571 34.5678 201.731 28.6373 200.383 22.596C200.37 22.2063 200.265 21.8232 200.077 21.4779C199.889 21.1326 199.623 20.8349 199.3 20.6089C199.103 20.4989 198.887 20.4284 198.665 20.4015C198.442 20.3745 198.217 20.3917 198.002 20.4521C197.356 20.7407 196.793 21.1843 196.363 21.7442L195.422 22.6617C194.538 23.5159 88.206 126.704 87.4976 127.386C86.4903 128.376 85.1739 129.648 83.9626 130.917C83.6547 131.258 83.4971 131.71 83.524 132.174C83.551 132.637 83.7604 133.075 84.1065 133.392C84.2787 133.546 84.4753 133.669 84.6878 133.758L85.0437 133.85C86.0867 134.156 87.349 134.463 88.8739 134.761C127.245 142.132 166.072 146.532 205.005 147.921C245.353 149.515 285.714 148.871 325.9 145.992C326.064 145.995 326.228 145.99 326.391 145.975C326.763 145.92 327.101 145.734 327.344 145.452C327.645 145.109 327.796 144.66 327.766 144.201C327.736 143.741 327.527 143.308 327.184 142.995Z" fill="#4A4A49"/>
</g>
</svg>
