<svg width="282" height="92" viewBox="0 0 282 92" fill="none" xmlns="http://www.w3.org/2000/svg">
<g clip-path="url(#clip0_386_3310)">
<path d="M99.8531 64.7239C100.154 64.7332 100.451 64.6541 100.707 64.497C100.962 64.3398 101.163 64.1117 101.285 63.8418C101.407 63.5719 101.443 63.2725 101.391 62.982C101.338 62.6915 101.197 62.4231 100.988 62.2111C100.778 61.9992 100.508 61.8533 100.214 61.7923C99.9187 61.7312 99.612 61.7577 99.3326 61.8684C99.0532 61.9791 98.814 62.169 98.6455 62.4136C98.477 62.6583 98.3869 62.9466 98.3867 63.2417C98.3817 63.4338 98.4158 63.625 98.4871 63.804C98.5585 63.983 98.6655 64.1463 98.8021 64.2843C98.9386 64.4224 99.1019 64.5323 99.2824 64.6078C99.4628 64.6833 99.6569 64.7228 99.8531 64.7239Z" fill="white"/>
<path d="M103.549 64.7239C103.85 64.7325 104.147 64.653 104.401 64.4954C104.656 64.3379 104.857 64.1095 104.978 63.8395C105.1 63.5696 105.136 63.2703 105.083 62.98C105.029 62.6896 104.889 62.4215 104.679 62.2099C104.469 61.9982 104.2 61.8527 103.905 61.7919C103.61 61.7311 103.304 61.7579 103.024 61.8687C102.745 61.9795 102.506 62.1693 102.338 62.4139C102.169 62.6585 102.079 62.9467 102.079 63.2417C102.076 63.4335 102.112 63.624 102.184 63.8023C102.257 63.9806 102.364 64.1433 102.5 64.2809C102.637 64.4185 102.8 64.5285 102.98 64.6045C103.16 64.6805 103.353 64.7211 103.549 64.7239Z" fill="white"/>
<path d="M123.716 78.4099C123.415 78.4056 123.121 78.4888 122.869 78.6491C122.617 78.8093 122.42 79.0393 122.302 79.3097C122.184 79.5802 122.15 79.8788 122.206 80.1678C122.262 80.4567 122.405 80.7228 122.615 80.9323C122.826 81.1418 123.096 81.2851 123.39 81.344C123.684 81.403 123.99 81.375 124.268 81.2634C124.546 81.1519 124.783 80.962 124.951 80.7178C125.118 80.4736 125.207 80.1862 125.207 79.8921C125.21 79.6985 125.174 79.5062 125.1 79.3265C125.027 79.1468 124.917 78.9832 124.778 78.8453C124.639 78.7073 124.474 78.5978 124.292 78.5231C124.109 78.4483 123.913 78.4098 123.716 78.4099Z" fill="white"/>
<path d="M127.402 78.4098C127.101 78.4012 126.804 78.4808 126.549 78.6383C126.295 78.7959 126.094 79.0242 125.973 79.2942C125.851 79.5642 125.815 79.8635 125.868 80.1538C125.921 80.4441 126.062 80.7122 126.272 80.9239C126.482 81.1355 126.751 81.281 127.046 81.3418C127.341 81.4026 127.647 81.3759 127.927 81.2651C128.206 81.1543 128.445 80.9644 128.613 80.7198C128.781 80.4752 128.871 80.187 128.872 79.892C128.875 79.7002 128.839 79.5097 128.767 79.3314C128.694 79.1531 128.587 78.9905 128.45 78.8529C128.314 78.7152 128.151 78.6052 127.971 78.5292C127.791 78.4532 127.598 78.4126 127.402 78.4098Z" fill="white"/>
<path d="M146.115 78.3882C145.811 78.3882 145.514 78.4764 145.262 78.6416C145.009 78.8069 144.812 79.0417 144.696 79.3165C144.58 79.5913 144.55 79.8937 144.609 80.1854C144.668 80.4771 144.814 80.7451 145.029 80.9554C145.244 81.1657 145.518 81.3089 145.816 81.367C146.113 81.425 146.422 81.3952 146.703 81.2814C146.983 81.1676 147.223 80.9748 147.392 80.7275C147.561 80.4802 147.651 80.1895 147.651 79.892C147.65 79.4934 147.488 79.1114 147.2 78.8295C146.912 78.5477 146.522 78.389 146.115 78.3882Z" fill="white"/>
<path d="M149.231 76.6219V66.3914H146.295V74.3677H128.95V66.3914H126.011V74.3677H106.643V66.8608C105.146 66.3563 103.574 66.0986 101.991 66.0981C97.8915 66.0981 96.094 68.7136 96.094 71.5669C96.094 74.6549 97.7181 76.6219 102.057 76.6219H149.231ZM103.795 74.3553H102.369C100.033 74.3553 99.0299 73.29 99.0299 71.3044C99.0299 69.606 100.011 68.3647 101.679 68.3647C102.404 68.3546 103.124 68.488 103.795 68.7568V74.3553Z" fill="white"/>
<path d="M201.715 74.3553H184.481C183.624 74.3571 182.779 74.1636 182.012 73.7902C183.5 72.555 184.282 71.0666 184.282 69.606C184.282 67.71 182.901 66.0332 179.583 66.0332C177.376 66.0332 174.91 67.2098 173.153 68.4511L172.907 70.4984C174.844 71.0234 176.159 72.3728 177.581 73.6822C175.899 74.17 174.15 74.3971 172.396 74.3553H156.414V66.3914H153.479V76.8751C153.479 79.2282 152.586 79.926 151.094 79.926C150.484 79.9292 149.877 79.8407 149.294 79.6636L149.048 81.9517C149.66 82.098 150.288 82.1716 150.918 82.171C155.459 82.171 156.414 79.5122 156.414 76.7238V76.6343H172.22C175.203 76.6343 177.675 76.1124 179.564 75.2848C180.921 76.184 182.528 76.651 184.165 76.6219H204.663V61.2592H201.727L201.715 74.3553ZM179.987 72.4593C178.631 71.3507 177.407 70.063 175.887 69.4547C176.688 68.9298 178.07 68.1454 179.271 68.1454C180.693 68.1454 181.384 68.9514 181.384 69.9766C181.368 70.869 180.924 71.7429 179.987 72.4593Z" fill="white"/>
<path d="M211.374 61.2592H208.435V76.6219H211.374V61.2592Z" fill="white"/>
<path d="M223.837 72.9194C223.837 72.1783 224.436 71.6317 225.593 71.6317C226.191 71.6362 226.788 71.6952 227.375 71.8077L227.731 69.5411C227.069 69.4409 226.399 69.3892 225.729 69.3867C222.235 69.3867 220.898 71.1963 220.898 73.0275C220.875 73.3209 220.936 73.6147 221.073 73.8763C221.211 74.1379 221.42 74.3571 221.677 74.5097C220.999 74.4138 220.315 74.3704 219.63 74.38V76.6219H228.356V74.38H226.372C224.505 74.38 223.837 73.7686 223.837 72.9194Z" fill="white"/>
<path d="M256.296 64.5386C256.6 64.5386 256.896 64.4504 257.149 64.2852C257.402 64.1199 257.598 63.8851 257.715 63.6103C257.831 63.3355 257.861 63.0331 257.802 62.7414C257.743 62.4497 257.597 62.1817 257.382 61.9714C257.167 61.7611 256.893 61.6179 256.595 61.5598C256.298 61.5018 255.989 61.5316 255.708 61.6454C255.427 61.7592 255.188 61.952 255.019 62.1993C254.85 62.4466 254.76 62.7373 254.76 63.0348C254.758 63.2327 254.797 63.429 254.874 63.6122C254.95 63.7954 255.063 63.9618 255.206 64.1018C255.349 64.2418 255.519 64.3525 255.706 64.4275C255.893 64.5025 256.094 64.5403 256.296 64.5386Z" fill="white"/>
<path d="M255.671 66.2494C254.722 66.2572 253.774 66.3232 252.833 66.447V68.692C253.681 68.575 254.535 68.5162 255.391 68.516C258.598 68.516 259.755 69.9333 259.755 72.7002C259.753 73.2537 259.715 73.8065 259.642 74.3553H234.474V61.2592H231.538V76.6219H262.281C262.518 75.296 262.644 73.9535 262.66 72.6075C262.66 68.4079 260.679 66.2494 255.671 66.2494Z" fill="white"/>
<path d="M268.604 80.1977C268.604 79.8272 268.957 79.5802 269.581 79.5802C269.94 79.5887 270.298 79.6249 270.651 79.6882L270.919 78.1195C270.485 78.0427 270.044 78.0065 269.604 78.0115C267.447 78.0115 266.51 79.0799 266.51 80.2564C266.505 80.3895 266.528 80.5222 266.578 80.646C266.628 80.7699 266.703 80.8822 266.8 80.9759C266.44 80.9104 266.075 80.8815 265.709 80.8895V82.4798H271.316V80.874H270.004C268.995 80.874 268.604 80.6332 268.604 80.1977Z" fill="white"/>
<path d="M270.739 72.7218L267.491 61.1048L264.574 61.5001L267.756 72.7218H270.739Z" fill="white"/>
<path d="M272.363 74.3553H265.488V76.6219H275.302V61.2592H272.363V74.3553Z" fill="white"/>
<path d="M282.003 61.2592H279.064V76.6219H282.003V61.2592Z" fill="white"/>
<path d="M101.499 38.5348L96.094 53.8728H99.1308L100.222 50.7385H106.163L107.22 53.8728H110.559L105.037 38.5348H101.499ZM100.944 48.3978L102.543 43.8307C102.776 43.0803 102.962 42.3979 103.145 41.7185H103.17C103.331 42.3979 103.539 43.0803 103.801 43.8307L105.4 48.3978H100.944Z" fill="white"/>
<path d="M118.553 47.0329C120.735 46.6716 122.407 45.035 122.407 42.7622C122.407 39.628 120.177 38.4391 116.731 38.4391C114.92 38.4391 113.457 38.4607 112.23 38.5286V53.8666H115.245V47.5332H115.501L119.723 53.8728H123.46L119.818 48.7159C119.436 48.1724 118.995 47.6011 118.553 47.0329ZM115.236 45.3531V40.9218C115.628 40.872 116.023 40.8493 116.418 40.8539C118.31 40.8539 119.257 41.5796 119.257 43.0587C119.257 44.4884 118.143 45.3994 116.333 45.3994C115.863 45.3932 115.444 45.3747 115.236 45.3531Z" fill="white"/>
<path d="M129.02 38.5348L123.618 53.8728H126.655L127.746 50.7385H133.687L134.753 53.8728H138.096L132.574 38.5348H129.02ZM128.462 48.3978L130.064 43.8307C130.297 43.0803 130.48 42.3979 130.666 41.7185H130.691C130.852 42.3979 131.06 43.0803 131.322 43.8307L132.924 48.3978H128.462Z" fill="white"/>
<path d="M147.815 45.7175V45.6711C148.521 45.4066 149.127 44.9353 149.551 44.3215C149.974 43.7076 150.194 42.9809 150.18 42.2404C150.18 39.7855 148.288 38.4453 144.936 38.4453C143.044 38.4453 141.06 38.4916 139.739 38.5595V53.8728C141.713 53.8728 143.268 53.9191 144.311 53.9191C148.906 53.9191 150.618 51.5105 150.618 49.1482C150.637 48.3451 150.366 47.5612 149.853 46.9339C149.341 46.3067 148.619 45.876 147.815 45.7175ZM142.769 40.8539C143.255 40.8323 143.813 40.8076 144.463 40.8076C146.295 40.8076 146.986 41.5796 146.986 42.716C146.986 44.0808 146.055 44.8991 143.993 44.8991C143.504 44.8991 143.132 44.8991 142.763 44.8744L142.769 40.8539ZM144.431 51.5321C143.876 51.5321 143.132 51.4858 142.763 51.4642V47.141C143.078 47.1163 143.876 47.1163 144.084 47.1163C146.15 47.1163 147.402 47.7988 147.402 49.2532C147.396 50.5779 146.399 51.5321 144.431 51.5321Z" fill="white"/>
<path d="M156.424 38.5348H153.406V53.8728H156.424V38.5348Z" fill="white"/>
<path d="M163.475 38.5348L158.07 53.8728H161.11L162.201 50.7385H168.139L169.208 53.8728H172.548L167.026 38.5348H163.475ZM162.92 48.3978L164.522 43.8307C164.752 43.0803 164.938 42.3979 165.124 41.7185H165.147C165.311 42.3979 165.519 43.0803 165.777 43.8307L167.379 48.3978H162.92Z" fill="white"/>
<path d="M184.266 42.3979C184.266 44.5348 184.336 48.3052 184.43 49.8523C183.993 48.7998 183.489 47.7747 182.923 46.7828L178.193 38.5348H174.197V53.8728H177.098V49.7164C177.098 47.4869 177.029 43.7628 176.934 42.4226C177.334 43.4499 177.799 44.4513 178.328 45.421L183.175 53.8728H187.167V38.5348H184.266V42.3979Z" fill="white"/>
<path d="M199.883 38.5348L194.478 53.8728H197.518L198.605 50.7385H204.547L205.609 53.8728H208.949L203.434 38.5348H199.883ZM199.328 48.3978L200.926 43.8307C201.16 43.0803 201.346 42.3979 201.532 41.7185H201.554C201.718 42.3979 201.926 43.0803 202.185 43.8307L203.784 48.3978H199.328Z" fill="white"/>
<path d="M213.619 38.5348H210.604V53.8728H218.703V51.282H213.619V38.5348Z" fill="white"/>
<path d="M225.268 46.3968H219.561V48.7375H225.268V46.3968Z" fill="white"/>
<path d="M227.914 53.8728H236.429V51.3283H230.929V47.1935H236.151V44.7849H230.929V41.0114H236.429V38.5348H227.914V53.8728Z" fill="white"/>
<path d="M251.14 38.5348H247.428L242.37 45.489V38.5348H239.355V53.8728H242.37V46.5111L247.406 53.8728H251.373L245.388 45.9429L251.14 38.5348Z" fill="white"/>
<path d="M262.858 44.6706H256.223V38.5348H253.205V53.8728H256.223V47.2151H262.858V53.8728H265.898V38.5348H262.858V44.6706Z" fill="white"/>
<path d="M276.478 38.5348H272.93L267.522 53.8728H270.572L271.663 50.7385H277.601L278.67 53.8728H282.009L276.478 38.5348ZM272.379 48.3978L273.981 43.8307C274.211 43.0803 274.397 42.3979 274.583 41.7185H274.605C274.769 42.3979 274.977 43.0803 275.236 43.8307L276.838 48.3978H272.379Z" fill="white"/>
<path d="M79.897 51.0164C79.8968 51.153 79.8477 51.2853 79.7582 51.3901L79.7172 51.4302C79.7172 51.4302 46.1575 85.8704 43.7671 88.2636C41.8246 90.2183 39.7401 92.6948 36.6024 91.8209C33.9124 91.0705 32.9348 88.3346 32.4492 85.9105C30.4635 75.8254 29.2826 65.6042 28.9172 55.3396C28.2172 36.997 29.1506 18.5927 32.3136 0.491012C32.3121 0.48492 32.3121 0.478575 32.3136 0.472484C32.3435 0.340072 32.4192 0.221812 32.5277 0.137622C32.6363 0.0534318 32.7712 0.00845556 32.9097 0.0102685C33.0482 0.0120814 33.1818 0.0605728 33.288 0.147575C33.3943 0.234578 33.4667 0.354775 33.493 0.487924C36.2208 14.075 42.0926 28.4217 50.8373 39.3964C56.2172 46.1529 63.6911 51.0844 72.6786 51.1739C74.8439 51.1975 77.0035 50.9516 79.1054 50.4421L79.1685 50.4266C79.2073 50.4236 79.2464 50.4236 79.2852 50.4266C79.3652 50.425 79.4447 50.439 79.5191 50.468C79.5935 50.4969 79.6612 50.5401 79.7182 50.5951C79.7752 50.6501 79.8204 50.7157 79.8511 50.7881C79.8818 50.8604 79.8974 50.9381 79.897 51.0164Z" fill="white"/>
<path d="M5.22222 75.3835C5.12472 75.2913 5.0624 75.1693 5.04562 75.0376V74.982L4.41492 64.205L3.9072 55.4043C3.52668 48.7301 3.12618 42.0663 2.70571 35.4127C2.50389 32.1827 2.2863 28.9496 2.12231 25.7165C1.98987 23.0794 1.54837 19.9976 4.25409 18.398C6.57192 17.0269 9.22718 18.154 11.299 19.4201C19.913 24.7037 28.0938 30.6362 35.7672 37.1636C49.5102 48.7898 62.2031 61.5957 73.2152 75.7478C73.2903 75.8565 73.3252 75.987 73.314 76.1177C73.3028 76.2485 73.2463 76.3715 73.1538 76.4664C73.0613 76.5613 72.9384 76.6224 72.8056 76.6394C72.6727 76.6564 72.538 76.6284 72.4236 76.56C60.7998 69.4792 46.5396 64.0907 32.8155 62.9019C24.3704 62.17 15.8653 64.1 9.86419 70.2759C8.41713 71.7621 7.16884 73.4223 6.14935 75.2167C6.14006 75.2359 6.12952 75.2544 6.11782 75.2723C6.09746 75.3031 6.07424 75.3321 6.04844 75.3587C5.94194 75.4688 5.79531 75.5332 5.64053 75.5378C5.48575 75.5425 5.33538 75.487 5.22222 75.3835Z" fill="white"/>
<path d="M73.2249 75.7604C62.2097 61.6082 49.5105 48.8055 35.7769 37.1607C28.1026 30.6313 19.9184 24.6997 11.2993 19.4203C9.89915 18.5649 8.23094 17.7713 6.56904 17.7713C5.75072 17.7613 4.9458 17.9752 4.2449 18.3889C1.54864 19.9978 1.99013 23.0826 2.12258 25.7167C2.28656 28.9498 5.04589 74.9822 5.04589 74.9822V75.0378C5.0641 75.169 5.1262 75.2906 5.22249 75.3837C5.33234 75.4835 5.47626 75.5397 5.62614 75.5411C5.70524 75.5406 5.78342 75.5244 5.85601 75.4936C5.92861 75.4629 5.99414 75.4181 6.04871 75.362C6.07458 75.3346 6.0988 75.3058 6.12124 75.2756L6.14962 75.22C7.17017 73.4263 8.41836 71.7662 9.86446 70.2792C15.0741 64.9185 22.1632 62.7569 29.4699 62.7569C30.5799 62.7569 31.6994 62.8063 32.8157 62.9052C46.5398 64.0878 60.8 69.4794 72.4334 76.5818C72.5285 76.6381 72.6375 76.668 72.7487 76.6683C72.8285 76.669 72.9075 76.6535 72.9809 76.6226C73.0542 76.5918 73.1201 76.5463 73.1744 76.4891C73.2679 76.3923 73.324 76.2666 73.3332 76.1336C73.3424 76.0007 73.3041 75.8687 73.2249 75.7604ZM54.3479 62.5933C54.3218 62.5965 54.2953 62.5965 54.2691 62.5933L54.1304 62.5439C47.393 60.1864 40.3827 58.6575 33.2604 57.9922C29.1631 57.5988 25.0279 57.8511 21.0121 58.7395C18.7012 59.2593 16.4582 60.0353 14.3267 61.0524C12.9165 61.7292 11.5654 62.5183 10.287 63.4116C10.2184 63.4819 10.1338 63.5353 10.0401 63.5675C9.94636 63.5997 9.84622 63.6097 9.74778 63.5969C9.69242 63.5838 9.64024 63.5602 9.59424 63.5273C9.54824 63.4945 9.50932 63.453 9.47973 63.4054C9.40858 63.2419 9.37935 63.0638 9.39459 62.8866L9.37567 62.5562C9.35675 62.2474 7.13667 25.0034 7.1209 24.7563C7.10198 24.4012 7.0736 23.9411 7.06414 23.4995C7.06497 23.3838 7.11252 23.273 7.19641 23.1915C7.2803 23.1099 7.39372 23.0641 7.51194 23.0641C7.57008 23.0648 7.62767 23.0753 7.68223 23.095L7.76422 23.1382C8.01019 23.2587 8.29716 23.4161 8.63144 23.62C17.0208 28.7721 24.9895 34.5537 32.4657 40.9126C40.24 47.4739 47.6359 54.4532 54.6192 61.8182C54.6501 61.8454 54.6796 61.8743 54.7074 61.9046C54.7672 61.9782 54.7985 62.0701 54.7957 62.164C54.7933 62.2787 54.745 62.3879 54.6613 62.4681C54.5776 62.5484 54.4651 62.5933 54.3479 62.5933Z" fill="#4A4A49"/>
</g>
<defs>
<clipPath id="clip0_386_3310">
<rect width="282" height="92" fill="white"/>
</clipPath>
</defs>
</svg>
